<svg width="41" height="41" viewBox="0 0 41 41" fill="none" xmlns="http://www.w3.org/2000/svg">
<path d="M37 20.0069H36.72C35.57 14.8669 30.98 11.0069 25.5 11.0069H22V9.72688C23.74 9.10688 25 7.45688 25 5.50688C25 3.02688 22.98 1.00688 20.5 1.00688C18.02 1.00688 16 3.02688 16 5.50688C16 7.45688 17.26 9.10688 19 9.72688V11.0069H15.5C10.02 11.0069 5.43 14.8669 4.28 20.0069H4C2.35 20.0069 1 21.3569 1 23.0069V26.0069C1 27.6569 2.35 29.0069 4 29.0069H4.55C5.73 32.6869 8.71 35.5469 12.45 36.5869C12.17 37.1769 12 37.8169 12 38.5069C12 39.3369 12.67 40.0069 13.5 40.0069H27.5C28.33 40.0069 29 39.3369 29 38.5069C29 37.8169 28.83 37.1669 28.55 36.5869C32.29 35.5569 35.27 32.6869 36.45 29.0069H37C38.65 29.0069 40 27.6569 40 26.0069V23.0069C40 21.3569 38.65 20.0069 37 20.0069ZM20.5 4.00688C21.33 4.00688 22 4.67688 22 5.50688C22 6.33688 21.33 7.00688 20.5 7.00688C19.67 7.00688 19 6.33688 19 5.50688C19 4.67688 19.67 4.00688 20.5 4.00688ZM25.5 34.0069H15.5C10.81 34.0069 7 30.1969 7 25.5069V22.5069C7 17.8169 10.81 14.0069 15.5 14.0069H25.5C30.19 14.0069 34 17.8169 34 22.5069V25.5069C34 30.1969 30.19 34.0069 25.5 34.0069Z" fill="black"/>
<path d="M15 18.0069C13.35 18.0069 12 19.3569 12 21.0069V24.0069C12 25.6569 13.35 27.0069 15 27.0069C16.65 27.0069 18 25.6569 18 24.0069V21.0069C18 19.3569 16.65 18.0069 15 18.0069Z" fill="black"/>
<path d="M26 18.0069C24.35 18.0069 23 19.3569 23 21.0069V24.0069C23 25.6569 24.35 27.0069 26 27.0069C27.65 27.0069 29 25.6569 29 24.0069V21.0069C29 19.3569 27.65 18.0069 26 18.0069Z" fill="black"/>
<path d="M10.03 3.92688L13.03 4.92688C13.19 4.97688 13.35 5.00688 13.5 5.00688C14.13 5.00688 14.71 4.60688 14.92 3.97688C15.18 3.18688 14.76 2.33688 13.97 2.07688L10.97 1.07688C10.19 0.81688 9.34 1.23688 9.07 2.02688C8.8 2.81688 9.23 3.66688 10.02 3.92688H10.03Z" fill="black"/>
<path d="M10.5 10.0069C10.66 10.0069 10.82 9.98688 10.97 9.92688L13.97 8.92688C14.76 8.66688 15.18 7.81688 14.92 7.02688C14.66 6.23688 13.81 5.81688 13.02 6.07688L10.02 7.07688C9.23 7.33688 8.81 8.18688 9.07 8.97688C9.28 9.60688 9.86 10.0069 10.49 10.0069H10.5Z" fill="black"/>
<path d="M27.5 5.00688C27.66 5.00688 27.82 4.98688 27.97 4.92688L30.97 3.92688C31.76 3.66688 32.18 2.81688 31.92 2.02688C31.66 1.23688 30.81 0.81688 30.02 1.07688L27.02 2.07688C26.23 2.33688 25.81 3.18688 26.07 3.97688C26.28 4.60688 26.86 5.00688 27.49 5.00688H27.5Z" fill="black"/>
<path d="M27.03 8.92688L30.03 9.92688C30.19 9.97688 30.35 10.0069 30.5 10.0069C31.13 10.0069 31.71 9.60688 31.92 8.97688C32.18 8.18688 31.76 7.33688 30.97 7.07688L27.97 6.07688C27.19 5.81688 26.33 6.23688 26.07 7.02688C25.81 7.81688 26.23 8.66688 27.02 8.92688H27.03Z" fill="black"/>
<path d="M37 20.0069H36.72C35.57 14.8669 30.98 11.0069 25.5 11.0069H22V9.72688C23.74 9.10688 25 7.45688 25 5.50688C25 3.02688 22.98 1.00688 20.5 1.00688C18.02 1.00688 16 3.02688 16 5.50688C16 7.45688 17.26 9.10688 19 9.72688V11.0069H15.5C10.02 11.0069 5.43 14.8669 4.28 20.0069H4C2.35 20.0069 1 21.3569 1 23.0069V26.0069C1 27.6569 2.35 29.0069 4 29.0069H4.55C5.73 32.6869 8.71 35.5469 12.45 36.5869C12.17 37.1769 12 37.8169 12 38.5069C12 39.3369 12.67 40.0069 13.5 40.0069H27.5C28.33 40.0069 29 39.3369 29 38.5069C29 37.8169 28.83 37.1669 28.55 36.5869C32.29 35.5569 35.27 32.6869 36.45 29.0069H37C38.65 29.0069 40 27.6569 40 26.0069V23.0069C40 21.3569 38.65 20.0069 37 20.0069ZM20.5 4.00688C21.33 4.00688 22 4.67688 22 5.50688C22 6.33688 21.33 7.00688 20.5 7.00688C19.67 7.00688 19 6.33688 19 5.50688C19 4.67688 19.67 4.00688 20.5 4.00688ZM25.5 34.0069H15.5C10.81 34.0069 7 30.1969 7 25.5069V22.5069C7 17.8169 10.81 14.0069 15.5 14.0069H25.5C30.19 14.0069 34 17.8169 34 22.5069V25.5069C34 30.1969 30.19 34.0069 25.5 34.0069Z" stroke="white" stroke-width="2"/>
<path d="M15 18.0069C13.35 18.0069 12 19.3569 12 21.0069V24.0069C12 25.6569 13.35 27.0069 15 27.0069C16.65 27.0069 18 25.6569 18 24.0069V21.0069C18 19.3569 16.65 18.0069 15 18.0069Z" stroke="white" stroke-width="2"/>
<path d="M26 18.0069C24.35 18.0069 23 19.3569 23 21.0069V24.0069C23 25.6569 24.35 27.0069 26 27.0069C27.65 27.0069 29 25.6569 29 24.0069V21.0069C29 19.3569 27.65 18.0069 26 18.0069Z" stroke="white" stroke-width="2"/>
<path d="M10.03 3.92688L13.03 4.92688C13.19 4.97688 13.35 5.00688 13.5 5.00688C14.13 5.00688 14.71 4.60688 14.92 3.97688C15.18 3.18688 14.76 2.33688 13.97 2.07688L10.97 1.07688C10.19 0.81688 9.34 1.23688 9.07 2.02688C8.8 2.81688 9.23 3.66688 10.02 3.92688H10.03Z" stroke="white" stroke-width="2"/>
<path d="M10.5 10.0069C10.66 10.0069 10.82 9.98688 10.97 9.92688L13.97 8.92688C14.76 8.66688 15.18 7.81688 14.92 7.02688C14.66 6.23688 13.81 5.81688 13.02 6.07688L10.02 7.07688C9.23 7.33688 8.81 8.18688 9.07 8.97688C9.28 9.60688 9.86 10.0069 10.49 10.0069H10.5Z" stroke="white" stroke-width="2"/>
<path d="M27.5 5.00688C27.66 5.00688 27.82 4.98688 27.97 4.92688L30.97 3.92688C31.76 3.66688 32.18 2.81688 31.92 2.02688C31.66 1.23688 30.81 0.81688 30.02 1.07688L27.02 2.07688C26.23 2.33688 25.81 3.18688 26.07 3.97688C26.28 4.60688 26.86 5.00688 27.49 5.00688H27.5Z" stroke="white" stroke-width="2"/>
<path d="M27.03 8.92688L30.03 9.92688C30.19 9.97688 30.35 10.0069 30.5 10.0069C31.13 10.0069 31.71 9.60688 31.92 8.97688C32.18 8.18688 31.76 7.33688 30.97 7.07688L27.97 6.07688C27.19 5.81688 26.33 6.23688 26.07 7.02688C25.81 7.81688 26.23 8.66688 27.02 8.92688H27.03Z" stroke="white" stroke-width="2"/>
</svg>
